<svg xmlns="http://www.w3.org/2000/svg" viewBox="0 0 480 400" role="img" aria-label="Children learning together under a big colourful umbrella">
  <defs>
    <linearGradient id="hlSky" x1="0" y1="0" x2="0" y2="1">
      <stop offset="0" stop-color="#FFFDF6"/>
      <stop offset="1" stop-color="#FBEFD0"/>
    </linearGradient>
    <clipPath id="hlCanopy">
      <path d="M52 158C66 74 142 38 240 38s174 36 188 120c-24 14-40-10-64-4s-32 22-60 12-36 8-64 0-36 18-60 4-32 12-56-2-48 4-72-10Z"/>
    </clipPath>
  </defs>

  <rect width="480" height="400" rx="30" fill="url(#hlSky)"/>
  <circle cx="70" cy="70" r="46" fill="#FFE9A3" opacity=".7"/>
  <circle cx="418" cy="118" r="34" fill="#C5F1ED" opacity=".7"/>
  <circle cx="404" cy="316" r="52" fill="#FFD4D4" opacity=".55"/>

  <!-- umbrella -->
  <g clip-path="url(#hlCanopy)">
    <rect x="30" y="30" width="110" height="150" fill="#FF6B6B"/>
    <rect x="140" y="30" width="100" height="150" fill="#FFC93C"/>
    <rect x="240" y="30" width="100" height="150" fill="#4ECDC4"/>
    <rect x="340" y="30" width="120" height="150" fill="#1E293B"/>
  </g>
  <path d="M52 158C66 74 142 38 240 38s174 36 188 120c-24 14-40-10-64-4s-32 22-60 12-36 8-64 0-36 18-60 4-32 12-56-2-48 4-72-10Z" fill="none" stroke="#1E293B" stroke-width="5" stroke-linejoin="round" opacity=".85"/>
  <path d="M240 38v20" stroke="#1E293B" stroke-width="6" stroke-linecap="round"/>
  <circle cx="240" cy="34" r="8" fill="#1E293B"/>
  <path d="M236 150h9v122h-9z" fill="#B07642"/>
  <path d="M240 272c0 20-12 30-28 30-12 0-18-7-18-16" fill="none" stroke="#B07642" stroke-width="9" stroke-linecap="round"/>

  <!-- ground -->
  <ellipse cx="240" cy="366" rx="196" ry="20" fill="#E2D9BD" opacity=".8"/>

  <!-- child left, reading -->
  <g>
    <path d="M110 358c0-32 18-52 42-52s42 20 42 52Z" fill="#4ECDC4"/>
    <circle cx="152" cy="286" r="26" fill="#F6C89A"/>
    <path d="M126 282c0-18 12-30 26-30s26 12 26 30c-8-8-16-12-26-12s-18 4-26 12Z" fill="#3B2E22"/>
    <circle cx="144" cy="288" r="3" fill="#1E293B"/><circle cx="160" cy="288" r="3" fill="#1E293B"/>
    <path d="M145 298c4 5 10 5 14 0" stroke="#1E293B" stroke-width="2.5" fill="none" stroke-linecap="round"/>
    <path d="M118 340h68l-34-16Z" fill="#FFFFFF" stroke="#E2D9BD" stroke-width="2"/>
    <path d="M152 324v16" stroke="#E2D9BD" stroke-width="2"/>
  </g>

  <!-- child middle -->
  <g>
    <path d="M198 358c0-36 20-58 46-58s46 22 46 58Z" fill="#FFC93C"/>
    <circle cx="244" cy="274" r="29" fill="#EBB183"/>
    <path d="M215 272c0-20 13-34 29-34s29 14 29 34c-6-12-16-16-29-16s-23 4-29 16Z" fill="#20160F"/>
    <circle cx="235" cy="276" r="3.2" fill="#1E293B"/><circle cx="253" cy="276" r="3.2" fill="#1E293B"/>
    <path d="M236 288c5 6 12 6 17 0" stroke="#1E293B" stroke-width="2.8" fill="none" stroke-linecap="round"/>
    <rect x="222" y="326" width="44" height="30" rx="5" fill="#FFFFFF" stroke="#E2D9BD" stroke-width="2"/>
    <path d="M230 336h28M230 344h20" stroke="#FFC93C" stroke-width="3" stroke-linecap="round"/>
  </g>

  <!-- child right -->
  <g>
    <path d="M294 358c0-32 18-52 42-52s42 20 42 52Z" fill="#FF6B6B"/>
    <circle cx="336" cy="286" r="26" fill="#C98B5E"/>
    <path d="M310 284c2-20 14-32 26-32s24 12 26 32c-6-6-14-14-26-14s-20 8-26 14Z" fill="#2B1D12"/>
    <circle cx="328" cy="288" r="3" fill="#1E293B"/><circle cx="344" cy="288" r="3" fill="#1E293B"/>
    <path d="M329 298c4 5 10 5 14 0" stroke="#1E293B" stroke-width="2.5" fill="none" stroke-linecap="round"/>
    <rect x="316" y="330" width="40" height="26" rx="4" fill="#FFFFFF" stroke="#E2D9BD" stroke-width="2"/>
    <path d="M324 340h24" stroke="#4ECDC4" stroke-width="3" stroke-linecap="round"/>
  </g>

  <!-- floating skill badges -->
  <g font-family="Poppins, sans-serif" font-weight="700" font-size="20" text-anchor="middle">
    <circle cx="62" cy="212" r="25" fill="#FFFFFF" stroke="#E2D9BD" stroke-width="2"/>
    <text x="62" y="220" fill="#1E293B">Aa</text>
    <circle cx="424" cy="212" r="25" fill="#FFFFFF" stroke="#E2D9BD" stroke-width="2"/>
    <text x="424" y="220" fill="#4ECDC4">123</text>
    <circle cx="92" cy="120" r="21" fill="#FFFFFF" stroke="#E2D9BD" stroke-width="2"/>
    <text x="92" y="128" fill="#FF6B6B" font-size="17">&lt;/&gt;</text>
  </g>
</svg>
