<svg xmlns="http://www.w3.org/2000/svg" viewBox="0 0 480 360" role="img" aria-label="Three numbered instruction cards linked by arrows">
  <defs><linearGradient id="bg" x1="0" y1="0" x2="0" y2="1"><stop offset="0" stop-color="#FFFDF6"/><stop offset="1" stop-color="#FBEFD0"/></linearGradient></defs>
  <rect width="480" height="360" rx="28" fill="url(#bg)"/>

  <circle cx="56" cy="72" r="38" fill="#C5F1ED" opacity=".65"/>
  <circle cx="430" cy="292" r="42" fill="#FFE9A3" opacity=".75"/>
  <g transform="translate(240 178)">
    <g>
      <rect x="-168" y="-70" width="96" height="128" rx="18" fill="#FFFFFF" stroke="#E2D9BD" stroke-width="3"/>
      <circle cx="-120" cy="-36" r="21" fill="#FFE9A3"/>
      <text x="-120" y="-28" text-anchor="middle" font-family="Fredoka, Poppins, sans-serif" font-weight="600" font-size="22" fill="#1E293B">1</text>
      <rect x="-152" y="0" width="64" height="10" rx="5" fill="#FBEFD0"/>
      <rect x="-152" y="20" width="44" height="10" rx="5" fill="#FBEFD0"/>
    </g>
    <g>
      <rect x="-48" y="-70" width="96" height="128" rx="18" fill="#FFFFFF" stroke="#E2D9BD" stroke-width="3"/>
      <circle cx="0" cy="-36" r="21" fill="#C5F1ED"/>
      <text x="0" y="-28" text-anchor="middle" font-family="Fredoka, Poppins, sans-serif" font-weight="600" font-size="22" fill="#1E293B">2</text>
      <rect x="-32" y="0" width="64" height="10" rx="5" fill="#FBEFD0"/>
      <rect x="-32" y="20" width="50" height="10" rx="5" fill="#FBEFD0"/>
    </g>
    <g>
      <rect x="72" y="-70" width="96" height="128" rx="18" fill="#FFFFFF" stroke="#E2D9BD" stroke-width="3"/>
      <circle cx="120" cy="-36" r="21" fill="#FFD4D4"/>
      <text x="120" y="-28" text-anchor="middle" font-family="Fredoka, Poppins, sans-serif" font-weight="600" font-size="22" fill="#1E293B">3</text>
      <rect x="88" y="0" width="64" height="10" rx="5" fill="#FBEFD0"/>
      <rect x="88" y="20" width="38" height="10" rx="5" fill="#FBEFD0"/>
    </g>
    <path d="M-66 -6h10M-54 -6l-10-6v12Z" stroke="#4ECDC4" stroke-width="4" fill="#4ECDC4" stroke-linecap="round"/>
    <path d="M54 -6h10M66 -6l-10-6v12Z" stroke="#4ECDC4" stroke-width="4" fill="#4ECDC4" stroke-linecap="round"/>
  </g>
  <g transform="translate(240 306)">
    <rect x="-88" y="-22" width="176" height="44" rx="22" fill="#FFFFFF" stroke="#E2D9BD" stroke-width="3"/>
    <path d="M-58 0l10 11 20-24" stroke="#4ECDC4" stroke-width="6" fill="none" stroke-linecap="round" stroke-linejoin="round"/>
    <rect x="-14" y="-7" width="70" height="14" rx="7" fill="#FBEFD0"/>
  </g>
</svg>
