<svg xmlns="http://www.w3.org/2000/svg" viewBox="0 0 480 360" role="img" aria-label="A spreadsheet table with a highlighted row of records">
  <defs><linearGradient id="bg" x1="0" y1="0" x2="0" y2="1"><stop offset="0" stop-color="#FFFDF6"/><stop offset="1" stop-color="#FBEFD0"/></linearGradient></defs>
  <rect width="480" height="360" rx="28" fill="url(#bg)"/>

  <circle cx="60" cy="72" r="36" fill="#DCD0FB" opacity=".7"/>
  <circle cx="424" cy="292" r="40" fill="#FFE9A3" opacity=".8"/>
  <g transform="translate(240 168)">
    <rect x="-180" y="-104" width="360" height="208" rx="20" fill="#FFFFFF" stroke="#1E293B" stroke-width="4"/>
    <rect x="-180" y="-104" width="360" height="46" rx="20" fill="#2B6CB0"/>
    <rect x="-180" y="-81" width="360" height="23" fill="#2B6CB0"/>
    <g font-family="Consolas, Menlo, monospace" font-size="15" fill="#FFFFFF">
      <text x="-152" y="-72">name</text>
      <text x="-38" y="-72">class</text>
      <text x="72" y="-72">score</text>
    </g>
    <rect x="-180" y="-12" width="360" height="46" fill="#FFE9A3"/>
    <g font-family="Consolas, Menlo, monospace" font-size="15" fill="#1E293B">
      <text x="-152" y="-24">Aarav</text><text x="-38" y="-24">7</text><text x="72" y="-24">88</text>
      <text x="-152" y="22">Meera</text><text x="-38" y="22">8</text><text x="72" y="22">94</text>
      <text x="-152" y="68">Zoya</text><text x="-38" y="68">7</text><text x="72" y="68">76</text>
    </g>
    <path d="M-60 -58v162M50 -58v162" stroke="#E2D9BD" stroke-width="3"/>
    <path d="M-180 -12h360M-180 34h360" stroke="#E2D9BD" stroke-width="3"/>
  </g>
  <g transform="translate(240 306)">
    <rect x="-96" y="-22" width="192" height="44" rx="16" fill="#1E293B"/>
    <text x="0" y="8" text-anchor="middle" font-family="Consolas, Menlo, monospace" font-size="17" fill="#C5F1ED">name,class,score</text>
  </g>
</svg>
