<svg xmlns="http://www.w3.org/2000/svg" viewBox="0 0 480 360" role="img" aria-label="Two dice above a bar chart of rolled totals">
  <defs><linearGradient id="bg" x1="0" y1="0" x2="0" y2="1"><stop offset="0" stop-color="#FFFDF6"/><stop offset="1" stop-color="#FBEFD0"/></linearGradient></defs>
  <rect width="480" height="360" rx="28" fill="url(#bg)"/>

  <circle cx="60" cy="72" r="36" fill="#DCD0FB" opacity=".7"/>
  <circle cx="424" cy="290" r="40" fill="#FFD4D4" opacity=".7"/>
  <g transform="translate(240 104)">
    <g transform="translate(-56 0) rotate(-10)">
      <rect x="-40" y="-40" width="80" height="80" rx="18" fill="#FFFFFF" stroke="#1E293B" stroke-width="4"/>
      <circle cx="-16" cy="-16" r="7" fill="#1E293B"/><circle cx="16" cy="16" r="7" fill="#1E293B"/><circle cx="0" cy="0" r="7" fill="#1E293B"/>
    </g>
    <g transform="translate(56 6) rotate(12)">
      <rect x="-40" y="-40" width="80" height="80" rx="18" fill="#FFC93C" stroke="#1E293B" stroke-width="4"/>
      <circle cx="-16" cy="-16" r="7" fill="#1E293B"/><circle cx="16" cy="-16" r="7" fill="#1E293B"/>
      <circle cx="-16" cy="16" r="7" fill="#1E293B"/><circle cx="16" cy="16" r="7" fill="#1E293B"/>
    </g>
  </g>
  <g transform="translate(240 286)">
    <path d="M-160 12h320" stroke="#1E293B" stroke-width="4" stroke-linecap="round"/>
    <rect x="-150" y="-18" width="34" height="30" rx="6" fill="#C5F1ED"/>
    <rect x="-108" y="-42" width="34" height="54" rx="6" fill="#4ECDC4"/>
    <rect x="-66" y="-68" width="34" height="80" rx="6" fill="#FFC93C"/>
    <rect x="-24" y="-96" width="34" height="108" rx="6" fill="#FF6B6B"/>
    <rect x="18" y="-68" width="34" height="80" rx="6" fill="#FFC93C"/>
    <rect x="60" y="-42" width="34" height="54" rx="6" fill="#4ECDC4"/>
    <rect x="102" y="-18" width="34" height="30" rx="6" fill="#C5F1ED"/>
    <text x="-7" y="-104" text-anchor="middle" font-family="Fredoka, Poppins, sans-serif" font-weight="600" font-size="18" fill="#1E293B">7</text>
  </g>
</svg>
