<svg xmlns="http://www.w3.org/2000/svg" viewBox="0 0 480 360" role="img" aria-label="An open storybook with a quill and sparks of imagination">
  <defs><linearGradient id="bg" x1="0" y1="0" x2="0" y2="1"><stop offset="0" stop-color="#FFFDF6"/><stop offset="1" stop-color="#FBEFD0"/></linearGradient></defs>
  <rect width="480" height="360" rx="28" fill="url(#bg)"/>

  <circle cx="60" cy="76" r="36" fill="#C5F1ED" opacity=".65"/>
  <circle cx="426" cy="290" r="40" fill="#FFD4D4" opacity=".7"/>
  <g transform="translate(230 236)">
    <path d="M-150 -70h140c9 0 12 7 12 14v118c0-9-5-14-14-14h-138Z" fill="#FFFFFF" stroke="#1E293B" stroke-width="5" stroke-linejoin="round"/>
    <path d="M150 -70H10c-9 0-12 7-12 14v118c0-9 5-14 14-14h138Z" fill="#FFF8E7" stroke="#1E293B" stroke-width="5" stroke-linejoin="round"/>
    <rect x="-130" y="-42" width="106" height="9" rx="4.5" fill="#FBEFD0"/><rect x="-130" y="-20" width="82" height="9" rx="4.5" fill="#FBEFD0"/><rect x="-130" y="2" width="106" height="9" rx="4.5" fill="#FBEFD0"/><rect x="-130" y="24" width="82" height="9" rx="4.5" fill="#FBEFD0"/>
    <rect x="26" y="-42" width="76" height="9" rx="4.5" fill="#FBEFD0"/><rect x="26" y="-20" width="106" height="9" rx="4.5" fill="#FBEFD0"/><rect x="26" y="2" width="76" height="9" rx="4.5" fill="#FBEFD0"/><rect x="26" y="24" width="106" height="9" rx="4.5" fill="#FBEFD0"/>
  </g>
  <g transform="translate(150 116)">
    <path d="M0-40l8 18 18 8-18 8-8 18-8-18-18-8 18-8Z" fill="#FFC93C"/>
    <path d="M62-4l6 13 13 6-13 6-6 13-6-13-13-6 13-6Z" fill="#4ECDC4"/>
    <path d="M-46 16l5 10 10 5-10 5-5 10-5-10-10-5 10-5Z" fill="#FF6B6B"/>
  </g>
  <g transform="translate(342 128) rotate(20)">
    <path d="M0-64c26 26 30 66 12 96l-16 6-16-6c-18-30-14-70 20-96Z" fill="#A78BFA" stroke="#1E293B" stroke-width="4" stroke-linejoin="round"/>
    <path d="M-4 38v34" stroke="#1E293B" stroke-width="5" stroke-linecap="round"/>
  </g>
</svg>
